<?xml version="1.0" encoding="utf-8"?>
<!-- Generator: Adobe Illustrator 23.0.1, SVG Export Plug-In . SVG Version: 6.00 Build 0)  -->
<svg version="1.1" id="Layer_1" xmlns="http://www.w3.org/2000/svg" xmlns:xlink="http://www.w3.org/1999/xlink" x="0px" y="0px"
	 viewBox="0 0 133 38" style="enable-background:new 0 0 133 38;" xml:space="preserve">
<style type="text/css">
	.st0{fill:#FBCD0F;}
	.st1{fill:#2AAAE2;}
	.st2{fill:#E6097B;}
</style>
<g>
	<g>
		<rect y="12.7" width="4.6" height="25.1"/>
		<path d="M51.9,21.2l-4.1,11.6l-7-20.1h-4.9l9.1,25.1h5.7L56,23c-1.4-0.4-2.7-1-3.9-1.8H51.9z"/>
		<path d="M62.2,37.8h4.6v-16c-1.4,0.8-2.9,1.3-4.6,1.6L62.2,37.8z"/>
		<polygon points="73.9,9.5 73.9,37.8 78.4,37.8 78.4,3.3 73.9,3.3 		"/>
		<rect x="85.6" y="3.3" width="4.6" height="34.5"/>
		<rect x="97.3" y="12.7" width="4.6" height="25.1"/>
		<path d="M23.3,12.7c-6,0-7,2-7,2v-2h-4.6v25.1h4.6V22.7c0,0,0.1-1.6,0.3-2.1c0.8-2.5,3-3.6,6-3.6c4.3,0,5.9,2.3,5.9,6.3v14.5h4.6
			v-15C33.1,14.2,26.7,12.7,23.3,12.7z"/>
		<path d="M132.9,25l0.1-12.3h-5v2.9c0,0-2-2.9-7.5-2.9c-3.2,0-6.3,0.9-8.4,3.3c-2.1,2.4-3.2,5.4-3.2,8.9c0,0,0,0.1,0,0.1v0.4
			c0,0,0,0.1,0,0.1c0,3.6,1.1,6.6,3.2,8.9c2.1,2.4,5.3,3.3,8.4,3.3c5.5,0,7.5-2.9,7.5-2.9v2.9h5l-0.1-12.3V25z M128.4,25.5
			c0,2.4-0.7,4.3-2,5.9c-1.3,1.5-3.1,2.3-5.3,2.3c-2,0-3.7-0.8-5.1-2.3c-1.3-1.5-2-3.5-2-5.7c0,0,0-0.1,0-0.1V25c0,0,0-0.1,0-0.1
			c0-2.3,0.7-4.2,2-5.7c1.4-1.5,3.1-2.3,5.1-2.3c2.1,0,3.9,0.8,5.3,2.3c1.3,1.5,2,3.5,2,5.9V25.5z"/>
		<g>
			<g>
				<g>
					<g>
						<path class="st0" d="M59.8,8.8"/>
						<path class="st0" d="M59.8,8.8"/>
						<path class="st0" d="M59.8,8.8"/>
						<path class="st0" d="M59.8,8.8"/>
					</g>
					<g>
						<g>
							<g>
								<polygon class="st0" points="55.2,4.3 53.6,2.4 52.6,3.9 55,6.4 55.7,5 59.8,9.6 55.9,2.8 								"/>
								<path class="st0" d="M59.8,9.6"/>
								<path class="st0" d="M59.8,9.6"/>
								<path class="st0" d="M59.8,9.6"/>
							</g>
							<g>
								<polygon class="st0" points="64.5,15 66.1,16.9 67.1,15.3 64.6,12.9 64,14.3 59.8,9.6 63.8,16.5 								"/>
								<path class="st0" d="M59.8,9.6"/>
								<path class="st0" d="M59.8,9.6"/>
								<path class="st0" d="M59.8,9.6"/>
							</g>
						</g>
						<g>
							<g>
								<polygon class="st0" points="65.2,4.9 67.1,3.4 65.5,2.4 63.1,4.8 64.5,5.5 59.8,9.6 66.7,5.7 								"/>
								<path class="st0" d="M59.8,9.6"/>
								<path class="st0" d="M59.8,9.6"/>
								<path class="st0" d="M59.8,9.6"/>
							</g>
							<g>
								<polygon class="st0" points="54.5,14.3 52.6,15.9 54.2,16.9 56.6,14.5 55.2,13.8 59.8,9.6 53,13.6 								"/>
								<path class="st0" d="M59.8,9.6"/>
								<path class="st0" d="M59.8,9.6"/>
								<path class="st0" d="M59.8,9.6"/>
							</g>
						</g>
					</g>
				</g>
			</g>
			<g>
				<g>
					<g>
						<polygon class="st1" points="62.1,2.9 63,0.6 61.1,0.5 60.2,3.9 61.8,3.7 59.8,9.6 63.8,2.8 						"/>
						<path class="st1" d="M59.8,9.6"/>
						<path class="st1" d="M59.8,9.6"/>
						<path class="st1" d="M59.8,9.6"/>
					</g>
					<g>
						<polygon class="st1" points="57.6,16.4 56.7,18.7 58.5,18.8 59.4,15.4 57.9,15.5 59.8,9.6 55.9,16.5 						"/>
						<path class="st1" d="M59.8,9.6"/>
						<path class="st1" d="M59.8,9.6"/>
						<path class="st1" d="M59.8,9.6"/>
					</g>
				</g>
				<g>
					<g>
						<polygon class="st1" points="66.6,11.9 68.9,12.8 69,10.9 65.6,10 65.7,11.6 59.8,9.6 66.7,13.6 						"/>
						<path class="st1" d="M59.8,9.6"/>
						<path class="st1" d="M59.8,9.6"/>
						<path class="st1" d="M59.8,9.6"/>
					</g>
					<g>
						<polygon class="st1" points="53.1,7.4 50.8,6.5 50.7,8.4 54.1,9.3 53.9,7.7 59.8,9.6 53,5.7 						"/>
						<path class="st1" d="M59.8,9.6"/>
						<path class="st1" d="M59.8,9.6"/>
						<path class="st1" d="M59.8,9.6"/>
					</g>
				</g>
			</g>
			<g>
				<g>
					<g>
						<polygon class="st2" points="58.5,2.7 58.1,0.2 56.4,1.1 57.3,4.4 58.6,3.6 59.8,9.6 59.9,1.8 						"/>
						<path class="st2" d="M59.8,9.6"/>
						<path class="st2" d="M59.8,9.6"/>
						<path class="st2" d="M59.8,9.6"/>
					</g>
					<g>
						<polygon class="st2" points="61.2,16.6 61.6,19.1 63.3,18.2 62.4,14.8 61.1,15.7 59.8,9.6 59.8,17.5 						"/>
						<path class="st2" d="M59.8,9.6"/>
						<path class="st2" d="M59.8,9.6"/>
						<path class="st2" d="M59.8,9.6"/>
					</g>
				</g>
				<g>
					<g>
						<polygon class="st2" points="66.8,8.2 69.3,7.9 68.4,6.2 65,7.1 65.9,8.4 59.8,9.6 67.7,9.6 						"/>
						<path class="st2" d="M59.8,9.6"/>
						<path class="st2" d="M59.8,9.6"/>
						<path class="st2" d="M59.8,9.6"/>
					</g>
					<g>
						<polygon class="st2" points="52.9,11 50.4,11.4 51.3,13.1 54.6,12.2 53.8,10.9 59.8,9.6 52,9.6 						"/>
						<path class="st2" d="M59.8,9.6"/>
						<path class="st2" d="M59.8,9.6"/>
						<path class="st2" d="M59.8,9.6"/>
					</g>
				</g>
			</g>
		</g>
	</g>
</g>
</svg>
